<svg xmlns="http://www.w3.org/2000/svg" width="308.47" height="153.825" viewBox="0 0 308.47 153.825"><g transform="translate(-11778.23 555.26)"><g transform="translate(11649 -759)"><path d="M129.23,329.64v-.77h2.35V312.74h-2.35V312h7.36v.77h-2.47V328.9h4a4.083,4.083,0,0,0,.68-.06c1.1-.25,1.88-1.28,2.35-3.09l.5-2h.59l-.15,5.89Z" fill="#fff"/><path d="M151.27,312h7.22v.77h-2.33v10.1a11.14,11.14,0,0,0,.41,3.23q.94,3,4.54,3h.7q4.24-.45,4.24-6.16v-10.2H163.7V312h5.74v.77h-2.36v10a12.43,12.43,0,0,1-.32,2.94q-1.09,4.24-6.27,4.24-6.81,0-6.86-6.92V312.74h-2.36Z" fill="#fff"/><path d="M188.45,329.93a8.61,8.61,0,0,1-6.6-2.71,9.23,9.23,0,0,1-2.38-6.47,9.59,9.59,0,0,1,1.71-5.63,8.24,8.24,0,0,1,7.12-3.44,12.2,12.2,0,0,1,2.77.32,6.35,6.35,0,0,1,2.91,1.39,5.15,5.15,0,0,1,.09-1.15c.1-.28.36-.42.8-.42l.08,5.42h-.7a11.381,11.381,0,0,0-.5-1.26,5.77,5.77,0,0,0-8.28-2.65q-3,2-3,7.47a13.22,13.22,0,0,0,.68,4.45,5.18,5.18,0,0,0,5.21,3.86c3,0,5-1.65,6-4.89h.7v5.56a1.71,1.71,0,0,1-.56-.08c-.23-.12-.35-.59-.35-1.42a11.14,11.14,0,0,1-5.7,1.65Z" fill="#fff"/><path d="M206,329.64v-.77h2.35V312.74H206V312h7.21v.77h-2.33V328.9h1.86c.31.06.47.31.47.74Z" fill="#fff"/><path d="M234.45,329.64v-.77h1.91l-2.21-5.71H228l-2.21,5.71h1.74c.31.06.47.31.47.74h-5.24v-.77h1.86l6.59-16.9h1.09l6.74,16.9h1.3c.31.06.47.31.47.74Zm-3.39-14.46-2.73,7.13h5.5Z" fill="#fff"/><path d="M262.59,312h6v.77h-2.35v16.75l-1.36.29-11.57-14.54V328.9h1.74a1.359,1.359,0,0,1,.29,0c.32.06.47.31.47.74h-6v-.77h2.35V312.74h-2.35V312h4.09l11.19,14V312.74h-2.5Z" fill="#fff"/><path d="M289,329.64v-.77h1.91l-2.21-5.71h-6.15l-2.21,5.71h1.74c.31.06.47.31.47.74h-5.24v-.77h1.85l6.6-16.9h1.09l6.74,16.9h1.3c.31.06.47.31.47.74Zm-3.39-14.46-2.74,7.13h5.51Z" fill="#fff"/><path d="M337.49,321.69v.76h-2.21v7.19l-2.5-.92a2.506,2.506,0,0,1-.38.24,8.29,8.29,0,0,1-4,1,8.74,8.74,0,0,1-5.47-1.88,8.85,8.85,0,0,1-3.36-7.36,8.69,8.69,0,0,1,8.83-9,8.81,8.81,0,0,1,3.95.91l2.56-.53.15,5.71h-.77a11.09,11.09,0,0,0-1.59-3.59,5.3,5.3,0,0,0-4.39-1.68,6.539,6.539,0,0,0-1.56.18q-4.23,1.11-4.24,8.12,0,8.19,5.89,8.25a3.6,3.6,0,0,0,.47,0,5.55,5.55,0,0,0,3.95-2v-4.6h-2.65v-.76Z" fill="#fff"/><path d="M347.08,312h7.21v.77H352v10.1a10.8,10.8,0,0,0,.41,3.23q.94,3,4.53,3h.71q4.25-.45,4.24-6.16v-10.2H359.5V312h5.74v.77h-2.35v10a11.9,11.9,0,0,1-.33,2.94q-1.08,4.24-6.27,4.24-6.8,0-6.86-6.92V312.74h-2.35Z" fill="#fff"/><path d="M375,329.64v-.77h2.36V312.74H375V312h7.36v.77h-2.47V328.9h4a4.083,4.083,0,0,0,.68-.06c1.1-.25,1.88-1.28,2.35-3.09l.5-2H388l-.14,5.89Z" fill="#fff"/><path d="M397.91,329.64v-.77h2.35V312.74h-2.35V312h7.36v.77h-2.48V328.9h4a4.183,4.183,0,0,0,.68-.06c1.09-.25,1.88-1.28,2.35-3.09l.5-2H411l-.15,5.89Z" fill="#fff"/><path d="M431.34,329.64v-.77h1.92l-2.21-5.71H424.9l-2.21,5.71h1.74c.31.06.47.31.47.74h-5.24v-.77h1.85l6.6-16.9h1.09l6.74,16.9h1a1.43,1.43,0,0,1,.29,0c.32.06.47.31.47.74ZM428,315.18l-2.74,7.13h5.51Z" fill="#fff"/><path d="M194,348.51h3.51a3.28,3.28,0,0,1,2.77,1.28,4.74,4.74,0,0,1,.88,3,5.93,5.93,0,0,1-.52,2.53,3.21,3.21,0,0,1-3.15,2H194Zm3.27,7.76a3.24,3.24,0,0,0,1-.12,2.12,2.12,0,0,0,1.11-.9,3.749,3.749,0,0,0,.5-1.36A5.192,5.192,0,0,0,200,353a4.32,4.32,0,0,0-.64-2.54,2.31,2.31,0,0,0-2-.9H195.3v6.74Z" fill="#fff"/><path d="M210.67,348.51H217v1.07h-5.21v2.67h4.82v1h-4.82v3h5.3v1.05h-6.46Z" fill="#fff"/><path d="M226.63,348.51h4a3.869,3.869,0,0,1,1.63.29,2.06,2.06,0,0,1,1.21,2.07,2.29,2.29,0,0,1-.33,1.29,2.25,2.25,0,0,1-.91.81,1.79,1.79,0,0,1,.78.55,2,2,0,0,1,.29,1.11v1.17a3.769,3.769,0,0,0,.08.75.72.72,0,0,0,.39.54v.2h-1.46a1.5,1.5,0,0,1-.1-.3q0-.18-.06-.69l-.07-1.46a1.25,1.25,0,0,0-.62-1.16,2.48,2.48,0,0,0-1-.16h-2.63v3.77h-1.19Zm3.86,4a2.17,2.17,0,0,0,1.29-.34,1.35,1.35,0,0,0,.47-1.2,1.3,1.3,0,0,0-.66-1.28,2.119,2.119,0,0,0-1-.18h-2.82v3Z" fill="#fff"/><path d="M243.06,348.51h1.7l2.53,7.42,2.5-7.42h1.7v8.78h-1.14v-7.41l-2.5,7.41h-1.18l-2.53-7.41v7.46h-1.13Z" fill="#fff"/><path d="M263.61,348.51H265l3.19,8.78h-1.3l-.92-2.63h-3.44l-1,2.63H260.3Zm2,5.18-1.35-3.88-1.4,3.88Z" fill="#fff"/><path d="M282.46,348.51v1h-3v7.74h-1.2v-7.74h-3v-1Z" fill="#fff"/><path d="M298.33,349.76a4.85,4.85,0,0,1,.87,3,5.22,5.22,0,0,1-1,3.27,4.45,4.45,0,0,1-6.53.2,5.08,5.08,0,0,1-1-3.27,5.2,5.2,0,0,1,.89-3.05,3.84,3.84,0,0,1,3.36-1.62A4,4,0,0,1,298.33,349.76Zm-1.05,5.6a4.8,4.8,0,0,0,.7-2.6,3.69,3.69,0,0,0-.81-2.49,2.75,2.75,0,0,0-2.21-.95,2.88,2.88,0,0,0-2.22.94,3.94,3.94,0,0,0-.87,2.76,4,4,0,0,0,.74,2.46,2.79,2.79,0,0,0,2.4,1,2.47,2.47,0,0,0,2.27-1.12Z" fill="#fff"/><path d="M308.38,348.51h1.19v7.73H314v1.05h-5.6Z" fill="#fff"/><path d="M330.19,349.76a4.85,4.85,0,0,1,.87,3,5.16,5.16,0,0,1-1,3.27,4.449,4.449,0,0,1-6.53.2,5.08,5.08,0,0,1-1-3.27,5.2,5.2,0,0,1,.88-3.05,3.84,3.84,0,0,1,3.36-1.62,4,4,0,0,1,3.42,1.47Zm-1.05,5.6a4.8,4.8,0,0,0,.7-2.6,3.69,3.69,0,0,0-.81-2.49,2.77,2.77,0,0,0-2.21-.95,2.92,2.92,0,0,0-2.23.94,4.66,4.66,0,0,0-.12,5.22,2.77,2.77,0,0,0,2.39,1,2.49,2.49,0,0,0,2.28-1.12Z" fill="#fff"/><path d="M346.08,348.76a3.1,3.1,0,0,1,1.58,2.41h-1.17a2.21,2.21,0,0,0-.88-1.41,3,3,0,0,0-1.67-.44,2.61,2.61,0,0,0-2,.92,4,4,0,0,0-.81,2.73,4.38,4.38,0,0,0,.67,2.54,2.47,2.47,0,0,0,2.2,1,2.78,2.78,0,0,0,1.93-.69,2.93,2.93,0,0,0,.78-2.24H344v-1h3.86v4.7H347l-.29-1.13a4.281,4.281,0,0,1-1.05.92,3.92,3.92,0,0,1-2,.44,3.81,3.81,0,0,1-2.64-1,4.84,4.84,0,0,1-1.2-3.48,5,5,0,0,1,1.18-3.51,3.7,3.7,0,0,1,2.89-1.24,4.36,4.36,0,0,1,2.19.48Z" fill="#fff"/><path d="M357.79,348.51H359v8.78h-1.2Z" fill="#fff"/><path d="M371.25,348.51h1.34l3.19,8.78h-1.3l-.92-2.63h-3.45l-.95,2.63h-1.22Zm2,5.18-1.35-3.88-1.41,3.88Z" fill="#fff"/><path d="M299.82,274c0,5.79-5.56,18.3-16.16,18.3s-16.45-9.77-16.45-18.36c0-11,7-21.34,16.81-30.14,8.24,8.57,15.8,18.16,15.8,30.2m-16.16-33.72c-7.75-8.61-14.6-17.1-14.6-25.15,0-11.47,13.38-8.34,15.47-8.34l.26-1.31a37.369,37.369,0,0,0-9.73-1.74c-2.09,0-11.73,1-11.73,11.21,0,9.12,9.36,17.36,18.6,26.72-11.8,9.65-20.43,21-20.43,32.33,0,6.41,4.08,20.21,22.16,20.21s21.87-15.36,21.87-20.21c0-10.29-10.29-21-19.93-31.58,17.59-15,43.06-25.12,54.37-25.12v-1.82c-12.57,0-37.83,10.31-56.31,24.8" fill="#fff"/></g></g></svg>