<svg xmlns="http://www.w3.org/2000/svg" width="373.17" height="89.35" viewBox="0 0 373.17 89.35"><g transform="translate(-11615 804)"><g transform="translate(11518.68 -1042.79)"><path d="M164.76,292.33v-.75h2.33V275.64h-2.33v-.75H172v.75h-2.44v15.94h4a3.877,3.877,0,0,0,.67-.06c1.09-.25,1.86-1.27,2.33-3l.49-2h.58l-.14,5.81Z" fill="#7c7c7a"/><path d="M186.53,274.89h7.13v.75h-2.3v10a11,11,0,0,0,.41,3.2q.93,3,4.48,3h.7c2.79-.29,4.18-2.31,4.18-6.08V275.64h-2.32v-.75h5.67v.75h-2.33v9.89a12.231,12.231,0,0,1-.32,2.91q-1.08,4.19-6.19,4.19-6.72,0-6.78-6.84V275.64h-2.33Z" fill="#7c7c7a"/><path d="M223.25,292.63a8.53,8.53,0,0,1-6.51-2.68,9.16,9.16,0,0,1-2.35-6.4,9.48,9.48,0,0,1,1.68-5.55,8.14,8.14,0,0,1,7-3.4,11.842,11.842,0,0,1,2.73.31,6.32,6.32,0,0,1,2.88,1.37,5,5,0,0,1,.09-1.13c.1-.27.36-.41.78-.41l.09,5.35H229a10.117,10.117,0,0,0-.49-1.25,5.714,5.714,0,0,0-8.17-2.62c-2,1.3-3,3.77-3,7.39A12.869,12.869,0,0,0,218,288a5.12,5.12,0,0,0,5.15,3.81q4.44,0,5.93-4.83h.7v5.5a1.37,1.37,0,0,1-.55-.09c-.24-.11-.35-.58-.35-1.39A11.1,11.1,0,0,1,223.25,292.63Z" fill="#7c7c7a"/><path d="M240.55,292.33v-.75h2.33V275.64h-2.33v-.75h7.12v.75h-2.29v15.94h1.54a1.428,1.428,0,0,1,.29,0c.31.06.46.3.46.72Z" fill="#7c7c7a"/><path d="M268.69,292.33v-.75h1.89l-2.18-5.64h-6.08l-2.18,5.64h1.72c.31.06.46.3.46.72h-5.17v-.75H259l6.51-16.69h1.08l6.66,16.69h1.29c.31.06.46.3.46.72Zm-3.34-14.27-2.71,7h5.44Z" fill="#7c7c7a"/><path d="M296.48,274.89h6v.75h-2.33v16.55l-1.34.29-11.43-14.37v13.47h1.72a1.428,1.428,0,0,1,.29,0c.31.06.47.3.47.72h-6v-.75h2.33V275.64h-2.33v-.75h4.05l11,13.78v-13h-2.48Z" fill="#7c7c7a"/><path d="M322.59,292.33v-.75h1.89l-2.18-5.64h-6.08L314,291.58h1.72c.31.06.46.3.46.72h-5.17v-.75h1.83l6.51-16.69h1.08l6.66,16.69h1.29c.31.06.46.3.46.72Zm-3.34-14.27-2.71,7H322Z" fill="#7c7c7a"/><path d="M370.47,284.48v.76h-2.18v7.09l-2.47-.9a2.508,2.508,0,0,1-.38.24,8.17,8.17,0,0,1-4,1,8.56,8.56,0,0,1-5.4-1.87,8.73,8.73,0,0,1-3.32-7.27,8.57,8.57,0,0,1,8.72-8.89,8.72,8.72,0,0,1,3.9.9l2.53-.53.15,5.65h-.76a10.841,10.841,0,0,0-1.57-3.55,5.23,5.23,0,0,0-4.33-1.66,6.848,6.848,0,0,0-1.54.17q-4.2,1.11-4.19,8,0,8.08,5.81,8.14a3.71,3.71,0,0,0,.47,0,5.43,5.43,0,0,0,3.9-1.94v-4.54h-2.62v-.76Z" fill="#7c7c7a"/><path d="M379.94,274.89h7.13v.75h-2.3v10a11,11,0,0,0,.41,3.2q.93,3,4.48,3h.69c2.8-.29,4.19-2.31,4.19-6.08V275.64h-2.33v-.75h5.68v.75h-2.33v9.89a12.232,12.232,0,0,1-.32,2.91c-.72,2.79-2.78,4.19-6.2,4.19q-6.71,0-6.77-6.84V275.64h-2.33Z" fill="#7c7c7a"/><path d="M407.5,292.33v-.75h2.33V275.64H407.5v-.75h7.27v.75h-2.44v15.94h4a3.877,3.877,0,0,0,.67-.06c1.09-.25,1.86-1.27,2.33-3l.49-2h.59l-.15,5.81Z" fill="#7c7c7a"/><path d="M430.15,292.33v-.75h2.32V275.64h-2.32v-.75h7.27v.75H435v15.94h4a4,4,0,0,0,.67-.06c1.08-.25,1.86-1.27,2.33-3l.49-2H443l-.14,5.81Z" fill="#7c7c7a"/><path d="M463.18,292.33v-.75h1.89l-2.19-5.64h-6.07l-2.18,5.64h1.42a1.428,1.428,0,0,1,.29,0c.31.06.47.3.47.72h-5.18v-.75h1.83L460,274.89h1.07l6.66,16.69h1a1.428,1.428,0,0,1,.29,0c.31.06.47.3.47.72Zm-3.35-14.27-2.7,7h5.43Z" fill="#7c7c7a"/><path d="M167,301.36h3.47a3.25,3.25,0,0,1,2.74,1.27,4.76,4.76,0,0,1,.86,2.93,6,6,0,0,1-.51,2.5,3.16,3.16,0,0,1-3.1,2H167Zm3.24,7.67a2.891,2.891,0,0,0,1-.13,2.11,2.11,0,0,0,1.09-.88,3.631,3.631,0,0,0,.49-1.35,5.089,5.089,0,0,0,.09-.91,4.28,4.28,0,0,0-.63-2.5,2.26,2.26,0,0,0-2-.89h-2V309Z" fill="#7c7c7a"/><path d="M183.43,301.36h6.29v1.06h-5.15v2.63h4.76v1h-4.76V309h5.24v1h-6.38Z" fill="#7c7c7a"/><path d="M199.19,301.36h3.94a3.771,3.771,0,0,1,1.61.29,2,2,0,0,1,1.2,2,2.36,2.36,0,0,1-.32,1.28,2.41,2.41,0,0,1-.9.8,1.79,1.79,0,0,1,.76.54,2,2,0,0,1,.29,1.09v1.17a3.618,3.618,0,0,0,.08.73.7.7,0,0,0,.38.53v.2h-1.44a1,1,0,0,1-.09-.29,3.841,3.841,0,0,1-.06-.68l-.07-1.45a1.23,1.23,0,0,0-.62-1.14,2.42,2.42,0,0,0-1-.16h-2.59V310h-1.18Zm3.82,4a2.17,2.17,0,0,0,1.27-.33,1.37,1.37,0,0,0,.47-1.19,1.3,1.3,0,0,0-.66-1.27,2,2,0,0,0-.93-.17h-2.79v3Z" fill="#7c7c7a"/><path d="M215.42,301.36h1.68l2.5,7.33,2.47-7.33h1.68V310h-1.13v-7.32L220.17,310H219l-2.5-7.32V310h-1.12Z" fill="#7c7c7a"/><path d="M235.72,301.36h1.33L240.2,310h-1.29l-.91-2.6h-3.4l-.94,2.6h-1.21Zm1.95,5.12-1.34-3.84L235,306.48Z" fill="#7c7c7a"/><path d="M254.34,301.36v1h-2.93V310h-1.18v-7.64H247.3v-1Z" fill="#7c7c7a"/><path d="M270,302.6a4.79,4.79,0,0,1,.86,2.94,5.14,5.14,0,0,1-1,3.23,3.9,3.9,0,0,1-3.3,1.51,4,4,0,0,1-3.15-1.32,5.621,5.621,0,0,1-.12-6.22,3.78,3.78,0,0,1,3.32-1.61A4,4,0,0,1,270,302.6Zm-1,5.52a4.74,4.74,0,0,0,.69-2.56,3.61,3.61,0,0,0-.8-2.46,2.73,2.73,0,0,0-2.18-.94,2.85,2.85,0,0,0-2.2.93,3.9,3.9,0,0,0-.85,2.73,4,4,0,0,0,.73,2.43,2.72,2.72,0,0,0,2.36,1A2.43,2.43,0,0,0,269,308.12Z" fill="#7c7c7a"/><path d="M279.94,301.36h1.18V309h4.35v1h-5.53Z" fill="#7c7c7a"/><path d="M301.48,302.6a4.73,4.73,0,0,1,.86,2.94,5.13,5.13,0,0,1-1,3.23,3.9,3.9,0,0,1-3.3,1.51,3.94,3.94,0,0,1-3.15-1.32,5,5,0,0,1-1-3.22,5.12,5.12,0,0,1,.87-3,3.8,3.8,0,0,1,3.32-1.61A4,4,0,0,1,301.48,302.6Zm-1,5.52a4.74,4.74,0,0,0,.69-2.56,3.66,3.66,0,0,0-.8-2.46,2.74,2.74,0,0,0-2.19-.94,2.81,2.81,0,0,0-2.19.93,3.9,3.9,0,0,0-.86,2.73,4,4,0,0,0,.73,2.43,2.76,2.76,0,0,0,2.37,1,2.45,2.45,0,0,0,2.22-1.13Z" fill="#7c7c7a"/><path d="M317.18,301.6a3.1,3.1,0,0,1,1.56,2.38h-1.16a2.14,2.14,0,0,0-.86-1.38,2.94,2.94,0,0,0-1.65-.44,2.58,2.58,0,0,0-2,.91,4,4,0,0,0-.8,2.69,4.41,4.41,0,0,0,.66,2.52,2.44,2.44,0,0,0,2.17,1,2.76,2.76,0,0,0,1.91-.68,2.91,2.91,0,0,0,.77-2.21h-2.71v-1h3.81V310h-.76l-.28-1.12a4.571,4.571,0,0,1-1,.91,3.79,3.79,0,0,1-1.94.44,3.72,3.72,0,0,1-2.61-1,4.79,4.79,0,0,1-1.19-3.43,5,5,0,0,1,1.17-3.47,3.66,3.66,0,0,1,2.86-1.23,4.37,4.37,0,0,1,2.05.5Z" fill="#7c7c7a"/><path d="M328.75,301.36h1.19V310h-1.19Z" fill="#7c7c7a"/><path d="M342,301.36h1.33l3.15,8.67h-1.29l-.91-2.6h-3.4L340,310h-1.21Zm1.95,5.12-1.34-3.84-1.38,3.84Z" fill="#7c7c7a"/><path d="M134.16,308.19c0,5.71-5.49,18.06-16,18.06S102,316.61,102,308.12c0-10.83,6.91-21.07,16.6-29.76,8.14,8.46,15.61,17.93,15.61,29.83m-16-33.31c-7.66-8.51-14.42-16.89-14.42-24.85,0-11.33,13.22-8.24,15.28-8.24l.26-1.29a36.631,36.631,0,0,0-9.62-1.71c-2.06,0-11.59.94-11.59,11.07,0,9,9.25,17.14,18.38,26.38-11.65,9.54-20.18,20.75-20.18,31.95,0,6.33,4,19.95,21.89,19.95s21.6-15.17,21.6-19.95c0-10.17-10.16-20.76-19.68-31.2,17.37-14.84,44.62-24.81,55.79-24.81v-1.81c-12.42,0-39.46,10.2-57.71,24.51" fill="#d7a1a7"/></g></g></svg>