<svg xmlns="http://www.w3.org/2000/svg" width="32" height="32" viewBox="0 0 32 32"><g transform="translate(2797 -6869)"><g transform="translate(-3098.622 6714.699)"><path d="M317.245,156.72a1.16,1.16,0,0,1,.806.321l.018.018.019.017,2.216,1.969a4.32,4.32,0,0,0,3.024,1.222h6.58a1.526,1.526,0,0,1,1.538,1.509V182.2a1.525,1.525,0,0,1-1.538,1.508H304.581a1.525,1.525,0,0,1-1.538-1.508V161.776a1.526,1.526,0,0,1,1.538-1.509h6.581a4.317,4.317,0,0,0,3.024-1.222l2.215-1.969.019-.017.018-.017a1.16,1.16,0,0,1,.807-.322m0-1.419a2.579,2.579,0,0,0-1.787.713l-2.241,1.991a2.924,2.924,0,0,1-2.055.842h-6.581a2.944,2.944,0,0,0-2.959,2.929V182.2a2.945,2.945,0,0,0,2.959,2.929h25.327a2.944,2.944,0,0,0,2.958-2.929V161.776a2.943,2.943,0,0,0-2.958-2.929h-6.58a2.922,2.922,0,0,1-2.055-.842l-2.241-1.991a2.579,2.579,0,0,0-1.787-.713Z" fill="#4d4d4f"/><path d="M317.245,165.238a3.548,3.548,0,1,0,3.555,3.547A3.551,3.551,0,0,0,317.245,165.238Zm0,5.679a2.129,2.129,0,1,1,2.133-2.129A2.132,2.132,0,0,1,317.245,170.917Z" fill="#4d4d4f" fill-rule="evenodd"/><path d="M321.318,173.77h-8.146a2.261,2.261,0,0,0-2.326,2.189v2.066h1.428v-2.132a.71.71,0,0,1,.71-.71h8.521a.71.71,0,0,1,.71.71v2.132h1.427v-2.066A2.26,2.26,0,0,0,321.318,173.77Z" fill="#4d4d4f" fill-rule="evenodd"/></g><rect width="32" height="32" transform="translate(-2797 6869)" fill="none"/></g></svg>