<svg xmlns="http://www.w3.org/2000/svg" width="48.357" height="56.5" viewBox="0 0 48.357 56.5"><path d="M128.247,109.52c-4.845-5.377-9.119-10.678-9.119-15.709,0-7.164,8.358-5.21,9.661-5.21l.163-.814a23.125,23.125,0,0,0-6.079-1.085c-1.3,0-7.327.6-7.327,7,0,5.691,5.85,10.84,11.622,16.683-7.37,6.028-12.109,13.118-12.109,20.2,0,4,1.894,12.619,13.187,12.619s13-9.593,13-12.619c0-6.428-5.767-13.122-11.79-19.726,10.984-9.383,26.889-15.688,33.958-15.688v-1.14C155.562,94.028,139.786,100.473,128.247,109.52Zm9.609,21.062c0,3.612-2.988,11.425-9.609,11.425s-9.79-6.1-9.79-11.467c0-6.848,3.885-13.325,10.014-18.819C133.617,117.072,137.856,123.059,137.856,130.582Z" transform="translate(-115.059 -86.701)" fill="#c6a09a"/></svg>